<svg width="20" height="20" viewBox="0 0 20 20" fill="none" xmlns="http://www.w3.org/2000/svg">
<path d="M9.99301 5.36327C8.76719 5.36327 7.59158 5.84947 6.7248 6.71491C5.85802 7.58034 5.37106 8.75413 5.37106 9.97804C5.37106 11.202 5.85802 12.3757 6.7248 13.2412C7.59158 14.1066 8.76719 14.5928 9.99301 14.5928C11.2188 14.5928 12.3944 14.1066 13.2612 13.2412C14.128 12.3757 14.615 11.202 14.615 9.97804C14.615 8.75413 14.128 7.58034 13.2612 6.71491C12.3944 5.84947 11.2188 5.36327 9.99301 5.36327ZM9.99301 12.975C9.19665 12.975 8.43291 12.6592 7.8698 12.097C7.30669 11.5347 6.99034 10.7722 6.99034 9.97704C6.99034 9.18192 7.30669 8.41937 7.8698 7.85713C8.43291 7.2949 9.19665 6.97904 9.99301 6.97904C10.7894 6.97904 11.5531 7.2949 12.1162 7.85713C12.6793 8.41937 12.9957 9.18192 12.9957 9.97704C12.9957 10.7722 12.6793 11.5347 12.1162 12.097C11.5531 12.6592 10.7894 12.975 9.99301 12.975Z" fill="#606062"/>
<path d="M14.7979 6.26946C15.393 6.26946 15.8754 5.78779 15.8754 5.19361C15.8754 4.59944 15.393 4.11776 14.7979 4.11776C14.2028 4.11776 13.7204 4.59944 13.7204 5.19361C13.7204 5.78779 14.2028 6.26946 14.7979 6.26946Z" fill="#606062"/>
<path d="M18.5232 4.0998C18.2918 3.50317 17.9382 2.96136 17.485 2.50904C17.0318 2.05672 16.489 1.70386 15.8914 1.47305C15.192 1.21094 14.4532 1.0692 13.7064 1.05389C12.7438 1.01198 12.4389 1 9.998 1C7.55709 1 7.24423 1 6.28965 1.05389C5.54337 1.06842 4.80507 1.21018 4.10662 1.47305C3.50882 1.70359 2.96589 2.05636 2.51266 2.50871C2.05943 2.96106 1.70591 3.50302 1.47479 4.0998C1.21221 4.79802 1.07058 5.53577 1.05598 6.28144C1.01299 7.24152 1 7.54591 1 9.98403C1 12.4212 1 12.7315 1.05598 13.6866C1.07097 14.4331 1.21191 15.1697 1.47479 15.8693C1.70656 16.4658 2.06042 17.0076 2.51376 17.4599C2.9671 17.9121 3.50995 18.265 4.10762 18.496C4.80474 18.7687 5.54335 18.9205 6.29165 18.9451C7.25422 18.987 7.55908 19 10 19C12.4409 19 12.7538 19 13.7084 18.9451C14.4551 18.9299 15.1939 18.7886 15.8934 18.5269C16.4909 18.2956 17.0335 17.9424 17.4866 17.49C17.9398 17.0375 18.2935 16.4958 18.5252 15.8992C18.7881 15.2006 18.929 14.4641 18.944 13.7176C18.987 12.7575 19 12.4531 19 10.015C19 7.57685 19 7.26747 18.944 6.31238C18.9324 5.55616 18.79 4.80763 18.5232 4.0998ZM17.3058 13.6128C17.2993 14.1879 17.1942 14.7577 16.9949 15.2974C16.8448 15.6855 16.615 16.0379 16.3203 16.332C16.0255 16.6261 15.6724 16.8553 15.2837 17.005C14.7491 17.203 14.1845 17.308 13.6144 17.3154C12.6648 17.3593 12.3969 17.3703 9.96202 17.3703C7.5251 17.3703 7.27621 17.3703 6.30864 17.3154C5.73882 17.3084 5.17447 17.2034 4.64038 17.005C4.25024 16.8563 3.89571 16.6274 3.59973 16.3333C3.30375 16.0391 3.07291 15.6862 2.92215 15.2974C2.72568 14.7635 2.62059 14.2004 2.61128 13.6317C2.5683 12.6836 2.55831 12.4162 2.55831 9.98503C2.55831 7.55289 2.55831 7.30439 2.61128 6.33732C2.61774 5.7625 2.72289 5.19303 2.92215 4.65369C3.22701 3.86627 3.85173 3.24651 4.64038 2.94511C5.17473 2.74764 5.73892 2.64268 6.30864 2.63473C7.25922 2.59182 7.5261 2.57984 9.96202 2.57984C12.3979 2.57984 12.6478 2.57984 13.6144 2.63473C14.1845 2.64158 14.7492 2.74658 15.2837 2.94511C15.6724 3.09508 16.0255 3.32455 16.3202 3.61879C16.6149 3.91303 16.8447 4.26554 16.9949 4.65369C17.1914 5.18757 17.2964 5.75066 17.3058 6.31936C17.3487 7.26846 17.3597 7.53493 17.3597 9.96706C17.3597 12.3982 17.3597 12.6597 17.3167 13.6138L17.3058 13.6128Z" fill="#606062"/>
</svg>
