<?xml version="1.0" encoding="utf-8"?>
<!-- Generator: Adobe Illustrator 24.0.1, SVG Export Plug-In . SVG Version: 6.00 Build 0)  -->
<svg version="1.1" id="Camada_1" xmlns="http://www.w3.org/2000/svg" xmlns:xlink="http://www.w3.org/1999/xlink" x="0px" y="0px"
	 viewBox="0 0 217.4 49.1" style="enable-background:new 0 0 217.4 49.1;" xml:space="preserve">
<style type="text/css">
	.st0{fill:#606062;}
</style>
<title>logotipo</title>
<g id="Logotipo">
	<g>
		<g>
			<polygon class="st0" points="12.8,31.9 0,37.2 0,5.3 12.8,0 			"/>
			<polygon class="st0" points="30.8,31.9 18.1,37.2 18.1,5.3 30.8,0 			"/>
			<polygon class="st0" points="50,31.9 37.2,37.2 37.2,5.3 50,0 			"/>
		</g>
		<g>
			<g>
				<polygon class="st0" points="87.2,8.3 87.2,29.3 84.4,29.3 84.4,13.5 74.2,29.3 72,29.3 61.8,13.4 61.8,29.3 59,29.3 59,8.3 
					61.7,8.3 73.2,26 84.5,8.3 				"/>
				<rect x="92.9" y="8.3" class="st0" width="2.8" height="21"/>
				<g>
					<path class="st0" d="M123.3,29.2l-0.1,0.1h0.2L123.3,29.2z"/>
					<path class="st0" d="M116.4,20.3c1.3-0.3,2.4-0.9,3.3-1.8c0.9-1.1,1.4-2.5,1.3-3.9c0-0.9-0.2-1.9-0.5-2.7c-0.4-0.8-1-1.5-1.7-2
						c-0.9-0.6-1.8-1-2.8-1.1c-1.3-0.3-2.7-0.4-4-0.4h-10.5v21h2.8v-8.6h8.5h0.6l6.4,8.6h3.4l0.1-0.1L116.4,20.3z M104.3,18v-7h5.7
						c1.6,0,2.9,0,4,0.1c0.9,0.1,1.7,0.2,2.5,0.5c0.5,0.2,0.9,0.5,1.2,1c0.3,0.6,0.4,1.2,0.4,1.8c0,0.6-0.1,1.3-0.4,1.8
						c-0.3,0.5-0.7,0.8-1.3,1c-0.8,0.3-1.7,0.5-2.5,0.5c-1.1,0.1-2.4,0.1-4,0.1L104.3,18z"/>
				</g>
				<g>
					<path class="st0" d="M136.9,8.3h-2.7l-10.9,20.9l0.1,0.1h3l2.7-5.3h13l2.8,5.3h3.1L136.9,8.3z M130.5,21.3l5.1-9.7l5.1,9.7
						L130.5,21.3z"/>
					<path class="st0" d="M123.3,29.2l-0.1,0.1h0.2L123.3,29.2z"/>
				</g>
				<polygon class="st0" points="172.7,8.3 172.7,29.3 170,29.3 153.3,12.4 153.3,29.3 150.5,29.3 150.5,8.3 153.2,8.3 169.9,25.2 
					169.9,8.3 				"/>
				<polygon class="st0" points="196.6,8.3 196.6,11 187.5,11 187.5,29.3 184.7,29.3 184.7,11 175.6,11 175.6,8.3 				"/>
				<polygon class="st0" points="217.4,26.6 217.4,29.3 199.5,29.3 199.5,8.3 217.2,8.3 217.2,11 202.5,11 202.5,16.9 216.4,16.9 
					216.4,19.5 202.5,19.5 202.5,26.6 				"/>
			</g>
			<g>
				<path class="st0" d="M176.1,39.1c-0.5,1.8-1,3.5-1.7,5.2c-0.6,1.7-1.3,3.1-1.9,4.4H171c-0.6-1.3-1.2-2.8-1.9-4.5
					c-0.7-1.7-1.2-3.4-1.7-5.2h1.8c0.1,0.6,0.3,1.3,0.5,1.9s0.4,1.4,0.6,2s0.5,1.3,0.7,2s0.4,1.2,0.7,1.7c0.2-0.5,0.4-1.1,0.7-1.7
					s0.5-1.3,0.7-2s0.4-1.3,0.6-2s0.4-1.3,0.5-1.9L176.1,39.1z"/>
				<path class="st0" d="M178.7,37.4c-0.3,0-0.6-0.1-0.8-0.3c-0.2-0.2-0.3-0.5-0.3-0.8c0-0.3,0.1-0.6,0.3-0.8
					c0.2-0.2,0.5-0.3,0.8-0.3c0.3,0,0.6,0.1,0.8,0.3c0.2,0.2,0.3,0.5,0.3,0.8c0,0.3-0.1,0.6-0.3,0.8C179.3,37.3,179,37.4,178.7,37.4
					z M179.6,48.8h-1.7v-9.6h1.7V48.8z"/>
				<path class="st0" d="M188.8,34.7l1.7-0.3v14.1c-0.4,0.1-0.9,0.2-1.5,0.3c-0.7,0.1-1.4,0.2-2.1,0.2c-0.7,0-1.4-0.1-2-0.4
					c-1.2-0.5-2.1-1.4-2.5-2.6c-0.2-0.7-0.4-1.4-0.3-2.1c0-0.7,0.1-1.4,0.3-2c0.2-0.6,0.5-1.1,0.8-1.6c0.4-0.4,0.8-0.8,1.4-1
					c0.6-0.2,1.2-0.4,1.8-0.4c0.5,0,1,0.1,1.5,0.2c0.3,0.1,0.7,0.2,1,0.4L188.8,34.7z M188.8,41.2c-0.3-0.2-0.6-0.4-0.9-0.5
					c-0.4-0.2-0.8-0.2-1.3-0.2c-0.4,0-0.9,0.1-1.3,0.3c-0.3,0.2-0.6,0.4-0.9,0.7c-0.2,0.3-0.4,0.7-0.5,1.1c-0.1,0.5-0.2,0.9-0.1,1.4
					c-0.1,0.9,0.2,1.9,0.8,2.6c0.6,0.6,1.4,1,2.2,0.9c0.4,0,0.8,0,1.2-0.1c0.2,0,0.5-0.1,0.7-0.1L188.8,41.2z"/>
				<path class="st0" d="M196.9,38.9h0.5c0.2,0,0.4,0,0.6,0.1l0.5,0.1l0.3,0.1l-0.3,1.5c-0.2-0.1-0.4-0.1-0.7-0.2
					c-0.4-0.1-0.8-0.1-1.2-0.1c-0.3,0-0.6,0-0.9,0.1l-0.6,0.1v8.1h-1.7v-9.2c0.5-0.2,1-0.3,1.5-0.4C195.6,39,196.3,38.9,196.9,38.9z
					"/>
				<path class="st0" d="M208.9,44c0,0.7-0.1,1.4-0.3,2.1c-0.2,0.6-0.5,1.1-0.9,1.6c-0.4,0.4-0.9,0.8-1.4,1
					c-0.6,0.2-1.2,0.4-1.8,0.3c-0.6,0-1.2-0.1-1.8-0.4c-0.5-0.2-1-0.6-1.4-1c-0.4-0.5-0.7-1-0.9-1.6c-0.2-0.7-0.3-1.4-0.3-2.1
					c0-0.7,0.1-1.4,0.3-2.1c0.2-0.6,0.5-1.1,0.9-1.6c0.4-0.4,0.9-0.8,1.4-1c1.2-0.5,2.5-0.5,3.6,0c0.5,0.2,1,0.6,1.4,1
					c0.4,0.5,0.7,1,0.9,1.6C208.8,42.6,209,43.3,208.9,44z M207.2,44c0.1-0.9-0.2-1.8-0.7-2.6c-0.9-1.1-2.5-1.3-3.6-0.4
					c-0.2,0.1-0.3,0.3-0.4,0.4c-0.5,0.8-0.8,1.7-0.7,2.6c0,0.9,0.2,1.8,0.7,2.6c0.5,0.6,1.2,1,2,1c0.8,0,1.5-0.3,2-1
					C207,45.8,207.2,44.9,207.2,44z"/>
				<path class="st0" d="M213.6,47.6c0.5,0,1.1-0.1,1.6-0.3c0.3-0.2,0.5-0.5,0.5-0.9c0-0.4-0.2-0.8-0.5-1c-0.5-0.3-1.1-0.6-1.6-0.8
					c-0.4-0.1-0.7-0.3-1.1-0.5c-0.3-0.1-0.6-0.3-0.9-0.5c-0.2-0.2-0.4-0.5-0.6-0.8c-0.2-0.3-0.2-0.7-0.2-1.1c0-0.8,0.3-1.5,0.9-2
					c0.7-0.5,1.6-0.8,2.6-0.8c0.3,0,0.5,0,0.8,0l0.8,0.1l0.6,0.1l0.4,0.1l-0.3,1.5c-0.3-0.1-0.6-0.2-0.9-0.3
					c-0.5-0.1-0.9-0.2-1.4-0.2c-0.4,0-0.9,0.1-1.3,0.3c-0.3,0.2-0.5,0.5-0.5,0.9c0,0.4,0.2,0.8,0.5,1c0.2,0.1,0.4,0.3,0.6,0.4
					c0.3,0.1,0.5,0.2,0.9,0.3s0.9,0.3,1.2,0.5c0.3,0.1,0.6,0.3,0.9,0.6c0.2,0.2,0.4,0.5,0.6,0.8c0.1,0.4,0.2,0.8,0.2,1.2
					c0,0.8-0.3,1.6-1,2c-0.8,0.5-1.8,0.7-2.8,0.7c-0.7,0-1.3-0.1-2-0.2c-0.5-0.1-0.8-0.3-1-0.3l0.3-1.5l0.9,0.3
					C212.4,47.5,213,47.6,213.6,47.6z"/>
			</g>
		</g>
	</g>
</g>
</svg>
