<?xml version="1.0" standalone="no"?>
<!DOCTYPE svg PUBLIC "-//W3C//DTD SVG 20010904//EN"
 "http://www.w3.org/TR/2001/REC-SVG-20010904/DTD/svg10.dtd">
<svg version="1.0" xmlns="http://www.w3.org/2000/svg"
 width="96.000000pt" height="96.000000pt" viewBox="0 0 96.000000 96.000000"
 preserveAspectRatio="xMidYMid meet">
<metadata>
Created by potrace 1.11, written by Peter Selinger 2001-2013
</metadata>
<g transform="translate(0.000000,96.000000) scale(0.100000,-0.100000)"
fill="#000000" stroke="none">
<path d="M125 781 l-110 -48 -3 -301 c-1 -166 -1 -302 1 -302 1 0 54 22 117
48 l115 49 3 301 c1 166 -1 302 -5 301 -5 0 -57 -22 -118 -48z"/>
<path d="M465 781 l-110 -48 -3 -301 c-1 -166 -1 -302 0 -302 4 0 130 52 191
79 l47 20 0 301 c0 165 -3 300 -7 299 -5 0 -57 -22 -118 -48z"/>
<path d="M825 781 l-110 -48 -3 -301 -2 -301 37 13 c21 8 74 30 118 48 l80 35
3 301 c1 166 -1 302 -5 301 -5 0 -57 -22 -118 -48z"/>
</g>
</svg>
