<svg width="20" height="20" viewBox="0 0 20 20" fill="none" xmlns="http://www.w3.org/2000/svg">
<path fill-rule="evenodd" clip-rule="evenodd" d="M16.3773 3.61616C15.5471 2.78441 14.5592 2.12489 13.471 1.67582C12.3829 1.22675 11.2159 0.997049 10.0379 1.00003C5.09816 1.00003 1.07687 5.00124 1.07488 9.91953C1.07488 11.4914 1.48719 13.0255 2.27088 14.3788L1 19L5.75107 17.759C7.06527 18.471 8.53762 18.8443 10.0339 18.845H10.0379C14.9767 18.845 18.998 14.8438 19 9.9255C19.0034 8.75353 18.7733 7.59253 18.3232 6.50957C17.873 5.42662 17.2117 4.44321 16.3773 3.61616ZM10.0379 17.3397H10.0349C8.70067 17.3398 7.39097 16.9826 6.24325 16.3054L5.9717 16.1444L3.15241 16.8807L3.90415 14.1453L3.72745 13.8651C2.98148 12.6831 2.58659 11.3153 2.58835 9.91953C2.59035 5.83188 5.93177 2.50632 10.0409 2.50632C11.0195 2.50415 11.9889 2.69518 12.8928 3.06835C13.7968 3.44151 14.6174 3.9894 15.3071 4.68031C16.0006 5.36792 16.5502 6.1855 16.9243 7.0858C17.2984 7.9861 17.4895 8.95126 17.4865 9.9255C17.4845 14.0131 14.1431 17.3397 10.0379 17.3397ZM14.1241 11.7865C13.8995 11.6742 12.7993 11.1357 12.5937 11.0612C12.389 10.9867 12.2402 10.9499 12.0905 11.1725C11.9407 11.395 11.5115 11.8968 11.3807 12.0458C11.2499 12.1949 11.1191 12.2128 10.8955 12.1015C10.6719 11.9902 9.95006 11.7547 9.09449 10.9956C8.4286 10.4044 7.97935 9.67511 7.84857 9.45155C7.71779 9.22799 7.83459 9.10777 7.94741 8.99648C8.04824 8.89712 8.17103 8.73616 8.28285 8.606C8.39466 8.47584 8.4316 8.38344 8.50647 8.2344C8.58135 8.08536 8.54441 7.95519 8.48751 7.84391C8.4316 7.73164 7.98335 6.63471 7.79666 6.18858C7.61596 5.75637 7.43127 5.814 7.2935 5.80804C7.15081 5.80223 7.00802 5.79958 6.86521 5.80009C6.75166 5.80297 6.63993 5.82917 6.53702 5.87704C6.43412 5.92491 6.34226 5.99343 6.26721 6.07829C6.06155 6.30185 5.48352 6.84038 5.48352 7.93731C5.48352 9.03424 6.28618 10.0944 6.39799 10.2434C6.50981 10.3925 7.97736 12.643 10.2236 13.6088C10.7587 13.8383 11.176 13.9754 11.5005 14.0787C12.0366 14.2486 12.5248 14.2238 12.9111 14.1672C13.3414 14.1036 14.2359 13.6286 14.4226 13.108C14.6093 12.5873 14.6093 12.1412 14.5534 12.0478C14.4975 11.9544 14.3467 11.8978 14.1241 11.7865Z" fill="#606062"/>
</svg>
